<svg
          width="103"
          height="105"
          viewBox="0 0 103 105"
          fill="none"
          xmlns="http://www.w3.org/2000/svg"
        >
          <path
            fill-rule="evenodd"
            clip-rule="evenodd"
            d="M51.5 0C79.9435 0 103 24.0971 103 53.8278C103 77.605 88.2607 97.7757 67.8101 104.9C65.199 105.43 64.272 103.749 64.272 102.316C64.272 100.541 64.3338 94.7456 64.3338 87.5426C64.3338 82.5236 62.6858 79.2479 60.837 77.5784C72.306 76.2449 84.357 71.6927 84.357 51.0183C84.357 45.1383 82.3588 40.34 79.0525 36.5705C79.5881 35.2108 81.3545 29.7357 78.5478 22.3227C78.5478 22.3227 74.2321 20.8804 64.4007 27.8419C60.2859 26.6501 55.8775 26.0505 51.5 26.0295C47.1225 26.0505 42.7193 26.6501 38.6096 27.8419C28.7679 20.8804 24.4419 22.3227 24.4419 22.3227C21.6455 29.7357 23.4119 35.2108 23.9424 36.5705C20.6515 40.34 18.6379 45.1383 18.6379 51.0183C18.6379 71.6402 30.6631 76.2622 42.1013 77.622C40.6284 78.966 39.2945 81.3369 38.831 84.8176C35.8955 86.1931 28.4383 88.5737 23.8445 80.347C23.8445 80.347 21.1202 75.175 15.9496 74.797C15.9496 74.797 10.9283 74.729 15.5993 78.068C15.5993 78.068 18.9726 79.7218 21.3158 85.943C21.3158 85.943 24.3389 95.5503 38.6662 92.2953C38.692 96.7945 38.7383 101.035 38.7383 102.316C38.7383 103.739 37.7907 105.404 35.2208 104.905C14.7547 97.7913 0 77.6103 0 53.8278C0 24.0971 23.0617 0 51.5 0Z"
            fill="white"
          />
        </svg>