        <svg
          width="103"
          height="87"
          viewBox="0 0 103 87"
          fill="none"
          xmlns="http://www.w3.org/2000/svg"
        >
          <path
            fill-rule="evenodd"
            clip-rule="evenodd"
            d="M103 86.2489H82.4V56.066C82.4 47.7861 78.038 43.1665 70.2151 43.1665C61.7022 43.1665 56.65 47.9801 56.65 56.066V86.2489H36.05V30.1871H56.65V36.4915C56.65 36.4915 63.1132 26.9949 77.6774 26.9949C92.2468 26.9949 103 34.4396 103 49.8437V86.2489ZM12.5763 21.2211C5.62896 21.2211 0 16.4691 0 10.6084C0 4.75214 5.62896 0 12.5763 0C19.5185 0 25.1474 4.75214 25.1474 10.6084C25.1526 16.4691 19.5185 21.2211 12.5763 21.2211ZM0 86.2489H25.75V30.1871H0V86.2489Z"
            fill="white"
          />
        </svg>