<svg
              width="60"
              height="60"
              viewBox="0 0 60 60"
              fill="none"
              xmlns="http://www.w3.org/2000/svg"
            >
              <path
                d="M23.2296 52.5V46.1018L23.3138 41.5548C23.4149 40.1403 23.966 38.807 24.8727 37.775C24.886 37.7597 24.8993 37.7447 24.9128 37.7297C24.9478 37.6907 24.9247 37.6278 24.8727 37.6213C18.8139 36.865 12.5013 34.3068 12.5013 23.1687C12.4618 20.4255 13.3568 17.7662 15.0109 15.6804C15.0688 15.6074 15.1276 15.5352 15.1873 15.4636C15.265 15.3705 15.2905 15.2443 15.2549 15.1284C15.2527 15.1213 15.2505 15.1143 15.2484 15.1072C15.208 14.9748 15.1701 14.8417 15.1347 14.708C14.5266 12.4119 14.6574 9.95908 15.5132 7.74545C15.5195 7.7291 15.5259 7.71278 15.5323 7.69645C15.5642 7.61498 15.6313 7.5527 15.7175 7.53733C16.2547 7.44153 18.4259 7.31335 22.5825 10.1837C22.7118 10.273 22.8431 10.3652 22.9763 10.4605C23.0725 10.5292 23.1949 10.5503 23.3086 10.5179L23.3194 10.5148C23.5425 10.4514 23.7662 10.3912 23.9904 10.3343C27.9415 9.33065 32.0585 9.33065 36.0095 10.3343C36.2223 10.3883 36.4343 10.4452 36.646 10.505L36.6598 10.5089C36.7935 10.5468 36.9373 10.5221 37.0505 10.4413C37.1745 10.3529 37.2968 10.267 37.4175 10.1837C41.5643 7.3194 43.7235 7.441 44.2633 7.53673C44.351 7.5523 44.4195 7.6157 44.4525 7.69865C44.4568 7.70933 44.4608 7.71998 44.465 7.73065C45.3353 9.94528 45.4735 12.4054 44.865 14.708C44.8288 14.8453 44.7898 14.982 44.7483 15.1181C44.7108 15.2405 44.7378 15.3736 44.8195 15.4719L44.8273 15.4811C44.882 15.5469 44.936 15.6134 44.989 15.6804C46.6433 17.7662 47.5383 20.4255 47.4988 23.1687C47.4988 34.3675 41.1413 36.8588 35.0535 37.5375C35.0183 37.5413 35.0025 37.5835 35.0263 37.6097C35.0353 37.6197 35.0445 37.6297 35.0535 37.6397C35.6678 38.324 36.1443 39.136 36.4528 40.0257C36.7753 40.956 36.9065 41.9492 36.8378 42.9385V52.5"
                stroke="#EDEEE9"
                stroke-width="5"
                stroke-linecap="round"
                stroke-linejoin="round"
              />
              <path
                d="M10 42.5C10.9229 42.6307 11.804 42.9707 12.5766 43.4937C13.3493 44.017 13.9932 44.7095 14.4595 45.5195C14.8558 46.2405 15.39 46.876 16.0316 47.3892C16.6732 47.9025 17.4095 48.2838 18.1982 48.5108C18.987 48.738 19.8126 48.8065 20.6278 48.7125C21.443 48.6188 22.2317 48.3642 22.9486 47.9637"
                stroke="#EDEEE9"
                stroke-width="5"
                stroke-linecap="round"
                stroke-linejoin="round"
              />
            </svg>